<?xml version="1.0" standalone="no"?>
<!DOCTYPE svg PUBLIC "-//W3C//DTD SVG 20010904//EN"
 "http://www.w3.org/TR/2001/REC-SVG-20010904/DTD/svg10.dtd">
<svg version="1.0" xmlns="http://www.w3.org/2000/svg"
 width="752.000000pt" height="440.000000pt" viewBox="0 0 752.000000 440.000000"
 preserveAspectRatio="xMidYMid meet">
<metadata>
Created by potrace 1.15, written by Peter Selinger 2001-2017
</metadata>
<g transform="translate(0.000000,440.000000) scale(0.100000,-0.100000)"
fill="#000000" stroke="none">
<path d="M0 4315 c0 -76 2 -86 25 -109 14 -14 25 -34 25 -46 0 -24 -8 -25 -32
-3 -17 16 -18 -50 -18 -2070 l0 -2087 415 0 c342 0 413 2 409 13 -3 8 2 19 10
26 13 11 17 9 27 -13 l12 -26 289 0 288 0 0 30 c0 23 6 33 24 42 14 6 32 8 40
5 19 -7 21 -48 4 -65 -9 -9 159 -12 759 -12 l772 0 27 25 c34 32 64 32 94 0
l24 -25 1287 0 c1109 0 1291 2 1315 15 25 13 31 13 51 0 19 -13 93 -15 490
-14 299 0 474 4 486 11 13 7 22 7 30 -1 8 -8 115 -11 339 -11 l328 0 0 2200 0
2200 -513 0 c-438 0 -518 -2 -544 -15 -27 -13 -35 -13 -73 0 -36 13 -128 15
-590 15 -546 0 -548 0 -543 -20 5 -19 2 -20 -38 -14 -24 3 -49 13 -55 20 -9
12 -408 14 -2588 14 l-2576 0 0 -85z m7009 -36 c12 -35 2 -62 -29 -79 -24 -13
-77 -13 -85 0 -3 6 -15 10 -26 10 -13 0 -19 7 -19 23 0 27 17 47 41 47 9 0 22
7 29 15 7 8 27 15 45 15 28 0 35 -5 44 -31z m-3121 -2011 c30 -64 -28 -151
-80 -119 -19 12 -24 10 -51 -19 -59 -63 -123 -14 -95 73 l13 42 49 -2 c43 -1
52 2 74 28 31 38 71 37 90 -3z m2339 -550 c23 -21 23 -21 37 -2 14 19 15 19
50 0 20 -11 36 -23 36 -28 0 -4 5 -8 10 -8 6 0 9 5 8 12 -4 15 67 52 86 45 25
-10 19 -54 -10 -73 -17 -12 -28 -14 -35 -7 -7 7 -20 6 -41 -5 -29 -14 -32 -14
-49 9 -16 21 -21 22 -38 12 -28 -17 -60 -16 -67 2 -4 8 -17 15 -30 15 -26 0
-32 18 -12 38 17 17 28 15 55 -10z m-4587 -1051 c0 -13 8 -31 18 -40 15 -14
23 -15 49 -5 26 10 35 9 57 -5 24 -16 29 -16 106 13 101 37 110 38 110 2 0
-27 -6 -31 -84 -60 -94 -36 -112 -38 -137 -16 -13 12 -22 13 -38 5 -32 -17
-46 -13 -90 27 -40 36 -42 38 -31 70 14 37 40 43 40 9z"/>
</g>
</svg>
